<svg width="26" height="46" viewBox="0 0 26 46" fill="none" xmlns="http://www.w3.org/2000/svg">
<path d="M5.09044 38.1603C4.62097 38.1603 4.20017 38.1603 3.75192 38.1603C3.67202 37.3339 3.72655 36.6185 4.29943 35.9249C5.60435 34.3449 6.27836 32.4364 6.84705 30.4979C7.90157 26.9032 8.36268 23.221 8.42094 19.4463C11.5163 19.4463 14.6144 19.4463 17.7547 19.4463C17.7962 20.3012 17.8178 21.1886 17.8858 22.0725C18.1875 25.994 18.8266 29.8483 20.4456 33.4667C20.8718 34.419 21.5003 35.286 22.0813 36.1619C22.4345 36.6943 22.5353 36.9893 22.4411 38.1603C16.6767 38.1603 10.9079 38.1603 5.09044 38.1603Z" fill="#006666"/>
<path d="M20.5665 12.0285C20.1954 12.9313 19.8404 13.7981 19.4707 14.7008C19.9141 14.7008 20.3877 14.7008 20.8849 14.7008C20.8849 15.7681 20.8849 16.7837 20.8849 17.8236C15.6962 17.8236 10.5149 17.8236 5.30933 17.8236C5.30933 16.7998 5.30933 15.7842 5.30933 14.7371C5.78495 14.7371 6.25129 14.7371 6.7958 14.7371C6.68192 14.5152 6.59577 14.3496 6.51159 14.183C5.81752 12.8094 5.26068 11.3971 5.28625 9.82129C5.31416 8.10084 5.99263 7.30322 7.70581 7.11683C8.96127 6.98023 10.2275 6.94205 11.5128 6.85845C11.5128 6.38753 11.5128 5.89148 11.5128 5.35338C11.0079 5.35338 10.5118 5.35338 9.99496 5.35338C9.99496 4.29605 9.99496 3.28047 9.99496 2.22298C10.5056 2.22298 11.0016 2.22298 11.5202 2.22298C11.5202 1.69828 11.5202 1.21463 11.5202 0.695312C12.5592 0.695312 13.5752 0.695312 14.633 0.695312C14.633 1.1649 14.633 1.66074 14.633 2.19802C15.1684 2.19802 15.6639 2.19802 16.1909 2.19802C16.1909 3.25471 16.1909 4.27049 16.1909 5.32841C15.709 5.32841 15.2134 5.32841 14.6893 5.32841C14.6893 5.86538 14.6893 6.3614 14.6893 6.90449C15.5619 6.9376 16.4499 6.94508 17.3333 7.01355C17.9782 7.06354 18.6263 7.15326 19.2562 7.298C20.1734 7.50873 20.6871 8.11468 20.8399 9.05638C21.0033 10.0626 20.8601 11.0308 20.5665 12.0285Z" fill="#006666"/>
<path d="M6.94535 45.9726C5.36757 45.9725 3.83862 45.9749 2.30967 45.9717C1.24096 45.9695 0.602994 45.3394 0.598552 44.2829C0.594448 43.307 0.591938 42.331 0.599321 41.3552C0.606649 40.3864 1.25564 39.7253 2.22004 39.7247C9.47442 39.7207 16.7288 39.7206 23.9832 39.7249C24.9438 39.7255 25.5892 40.391 25.5962 41.3632C25.6031 42.3065 25.5988 43.2499 25.5975 44.1933C25.5958 45.3583 24.9875 45.9719 23.8289 45.9721C18.2173 45.9731 12.6058 45.9725 6.94535 45.9726Z" fill="#006666"/>
</svg>
