<svg width="322" height="40" viewBox="0 0 322 40" fill="none" xmlns="http://www.w3.org/2000/svg">
<path d="M318.254 29.5392L318.254 29.5392L318.261 29.5344C320.085 28.2575 320.981 26.3744 320.981 23.9999C320.981 22.4896 320.603 21.1761 319.794 20.1142C319.056 19.0842 318.138 18.3254 317.039 17.8676C316.386 17.5953 315.731 17.3584 315.075 17.1571L315.107 17.1401L320.227 14.3801L320.916 14.0085L320.515 13.3359C319.623 11.8389 318.432 10.6872 316.947 9.89977C315.47 9.09023 313.84 8.68994 312.071 8.68994C309.722 8.68994 307.69 9.301 306.019 10.5612L306.019 10.5612L306.014 10.5651C304.315 11.8699 303.481 13.7149 303.481 15.9999C303.481 17.4163 303.853 18.6624 304.633 19.6928L304.638 19.6985L304.642 19.7041C305.406 20.6733 306.328 21.4058 307.406 21.8853L307.414 21.8889L307.423 21.8922C307.665 21.9932 307.907 22.09 308.15 22.1827L308.14 22.1881L302.94 25.1481L302.333 25.4938L302.635 26.1239C303.457 27.8402 304.658 29.1516 306.238 30.0261C307.81 30.8961 309.713 31.3099 311.911 31.3099C314.376 31.3099 316.505 30.7343 318.254 29.5392ZM314.093 16.8391L314.12 16.8892C314.101 16.8844 314.082 16.8795 314.062 16.8747C313.125 16.6141 312.323 16.3682 311.654 16.1372C311.381 16.0263 311.237 15.9257 311.171 15.8596C311.155 15.8434 311.146 15.8321 311.141 15.8252C311.143 15.7427 311.159 15.702 311.167 15.6853C311.174 15.6708 311.187 15.6505 311.227 15.624C311.327 15.5576 311.571 15.4699 312.071 15.4699C312.893 15.4699 313.558 15.8586 314.093 16.8391ZM311.136 15.8166C311.136 15.8167 311.137 15.818 311.138 15.8204C311.137 15.8178 311.136 15.8166 311.136 15.8166ZM309.221 22.5992L309.209 22.5617C309.602 22.6928 309.996 22.8131 310.39 22.9226L310.4 22.9252L310.409 22.9275C311.348 23.1622 312.127 23.4059 312.752 23.6563L312.752 23.6564L312.762 23.6599C313.061 23.7749 313.218 23.8805 313.291 23.9506C313.306 23.9648 313.315 23.9753 313.321 23.9823C313.317 24.11 313.279 24.1698 313.158 24.2395C312.967 24.3491 312.584 24.4499 311.911 24.4499C311.158 24.4499 310.601 24.28 310.189 23.9938C309.779 23.7096 309.447 23.2655 309.221 22.5992ZM313.328 23.993C313.328 23.993 313.327 23.9921 313.326 23.9902C313.328 23.9921 313.328 23.993 313.328 23.993Z" stroke="#006666" stroke-width="1.5"/>
<path d="M296.754 29.5392L296.754 29.5392L296.761 29.5344C298.585 28.2575 299.481 26.3744 299.481 23.9999C299.481 22.4896 299.103 21.1761 298.294 20.1142C297.556 19.0842 296.638 18.3254 295.539 17.8676C294.886 17.5953 294.231 17.3584 293.575 17.1571L293.607 17.1401L298.727 14.3801L299.416 14.0085L299.015 13.3359C298.123 11.8389 296.932 10.6872 295.447 9.89977C293.97 9.09023 292.34 8.68994 290.571 8.68994C288.222 8.68994 286.19 9.301 284.519 10.5612L284.519 10.5612L284.514 10.5651C282.815 11.8699 281.981 13.7149 281.981 15.9999C281.981 17.4163 282.353 18.6624 283.133 19.6928L283.138 19.6985L283.142 19.7041C283.906 20.6733 284.828 21.4058 285.906 21.8853L285.914 21.8889L285.923 21.8922C286.165 21.9932 286.407 22.09 286.649 22.1827L286.64 22.1881L281.44 25.1481L280.833 25.4938L281.135 26.1239C281.957 27.8402 283.158 29.1516 284.738 30.0261C286.31 30.8961 288.213 31.3099 290.411 31.3099C292.876 31.3099 295.005 30.7343 296.754 29.5392ZM292.593 16.8391L292.62 16.8892C292.601 16.8844 292.582 16.8795 292.562 16.8747C291.625 16.6141 290.823 16.3682 290.154 16.1372C289.881 16.0263 289.737 15.9257 289.671 15.8596C289.655 15.8434 289.646 15.8321 289.641 15.8252C289.643 15.7427 289.659 15.702 289.667 15.6853C289.674 15.6708 289.687 15.6505 289.727 15.624C289.827 15.5576 290.071 15.4699 290.571 15.4699C291.393 15.4699 292.058 15.8586 292.593 16.8391ZM289.636 15.8166C289.636 15.8167 289.637 15.818 289.638 15.8204C289.637 15.8178 289.636 15.8166 289.636 15.8166ZM287.721 22.5992L287.709 22.5617C288.102 22.6928 288.496 22.8131 288.89 22.9226L288.9 22.9252L288.909 22.9275C289.848 23.1622 290.627 23.4059 291.252 23.6563L291.252 23.6564L291.262 23.6599C291.561 23.7749 291.718 23.8805 291.791 23.9506C291.806 23.9648 291.815 23.9753 291.821 23.9823C291.817 24.11 291.779 24.1698 291.658 24.2395C291.467 24.3491 291.084 24.4499 290.411 24.4499C289.658 24.4499 289.101 24.28 288.689 23.9938C288.279 23.7096 287.947 23.2655 287.721 22.5992ZM291.828 23.993C291.828 23.993 291.827 23.992 291.826 23.9902C291.828 23.9921 291.828 23.9931 291.828 23.993Z" stroke="#006666" stroke-width="1.5"/>
<path d="M266.247 23.8521C265.928 23.6659 265.652 23.4336 265.419 23.1499H272.258L272.237 23.1718C271.472 24.003 270.407 24.4499 268.949 24.4499C267.783 24.4499 266.899 24.2323 266.247 23.8521ZM277.963 25.7898L273.372 23.1499H278.349H278.955L279.082 22.5571C279.255 21.7532 279.339 20.9 279.339 19.9999C279.339 16.8101 278.302 14.1117 276.21 11.9605C274.143 9.77995 271.53 8.68994 268.429 8.68994C265.13 8.68994 262.37 9.76926 260.215 11.9531L260.215 11.9532C258.093 14.1044 257.039 16.8052 257.039 19.9999C257.039 23.2224 258.107 25.9384 260.259 28.0903L260.262 28.0938C262.454 30.2569 265.35 31.3099 268.869 31.3099C272.913 31.3099 276.063 29.8491 278.198 26.8775L278.682 26.2035L277.963 25.7898ZM271.535 17.1699H265.128C265.363 16.7378 265.656 16.4058 265.999 16.1572C266.565 15.7472 267.341 15.5099 268.389 15.5099C269.392 15.5099 270.135 15.7445 270.681 16.1513C271.015 16.4 271.302 16.7338 271.535 17.1699Z" stroke="#006666" stroke-width="1.5"/>
<path d="M253.669 30.75H254.419V30V17.72C254.419 14.9916 253.656 12.7577 252.046 11.1171C250.485 9.49777 248.514 8.69 246.189 8.69C244.197 8.69 242.518 9.13929 241.219 10.0853V2V1.25H240.469H234.469H233.719V2V30V30.75H234.469H240.469H241.219V30V19.08C241.219 17.8332 241.524 17.0245 242.009 16.5198C242.508 16.0015 243.204 15.71 244.189 15.71C245.029 15.71 245.656 15.9684 246.138 16.4503L246.149 16.4614L246.161 16.4719C246.631 16.9043 246.919 17.5709 246.919 18.6V30V30.75H247.669H253.669Z" stroke="#006666" stroke-width="1.5"/>
<path d="M212.88 28.0468L212.884 28.0503C215.06 30.2268 217.789 31.3099 221.014 31.3099C223.086 31.3099 224.991 30.8115 226.712 29.8078C228.424 28.8089 229.761 27.4597 230.709 25.7661L231.071 25.118L230.427 24.7491L225.187 21.7491L224.478 21.3432L224.134 22.0841C223.845 22.7058 223.448 23.1421 222.949 23.4304C222.443 23.7225 221.784 23.8899 220.934 23.8899C219.81 23.8899 218.928 23.5313 218.228 22.8337C217.529 22.1101 217.164 21.186 217.164 19.9999C217.164 18.8113 217.53 17.9046 218.224 17.2103L218.224 17.2103L218.232 17.2021C218.935 16.4781 219.815 16.1099 220.934 16.1099C221.768 16.1099 222.422 16.2765 222.929 16.5695C223.431 16.8593 223.836 17.2991 224.138 17.9257L224.49 18.655L225.19 18.2487L230.43 15.2087L231.074 14.8355L230.706 14.189C229.756 12.5203 228.405 11.1868 226.67 10.1907C224.951 9.18889 223.061 8.68994 221.014 8.68994C217.789 8.68994 215.06 9.7731 212.884 11.9496L212.884 11.9496L212.88 11.9531C210.734 14.1276 209.664 16.8268 209.664 19.9999C209.664 23.1731 210.734 25.8723 212.88 28.0467L212.88 28.0468Z" stroke="#006666" stroke-width="1.5"/>
<path d="M190.713 8.68994C188.284 8.68994 186.32 9.3957 184.928 10.873C183.629 9.41211 181.852 8.68994 179.673 8.68994C177.826 8.68994 176.268 9.10999 175.062 9.99396V9.24994H174.312H168.312H167.562V9.99994V29.9999V30.7499H168.312H174.312H175.062V29.9999V18.7199C175.062 17.6588 175.303 16.927 175.693 16.4355C176.09 15.9666 176.638 15.7099 177.433 15.7099C178.198 15.7099 178.667 15.9421 178.972 16.3149L178.978 16.3226L178.985 16.3302C179.342 16.7433 179.562 17.3503 179.562 18.2399V29.9999V30.7499H180.312H186.312H187.062V29.9999V18.7199C187.062 17.6589 187.303 16.927 187.693 16.4355C188.09 15.9666 188.638 15.7099 189.433 15.7099C190.198 15.7099 190.667 15.9421 190.972 16.3149L190.978 16.3226L190.985 16.3302C191.342 16.7433 191.562 17.3503 191.562 18.2399V29.9999V30.7499H192.312H198.312H199.062V29.9999V17.7199C199.062 15.071 198.326 12.8741 196.784 11.2121C195.239 9.51913 193.189 8.68994 190.713 8.68994Z" stroke="#006666" stroke-width="1.5"/>
<path d="M157.912 9.25H157.162V10V20.92C157.162 22.1668 156.857 22.9755 156.372 23.4802C155.873 23.9985 155.177 24.29 154.192 24.29C153.349 24.29 152.701 24.0424 152.192 23.5787C151.737 23.1176 151.462 22.4278 151.462 21.4V10V9.25H150.712H144.712H143.962V10V22.28C143.962 25.006 144.71 27.239 146.292 28.8804L146.292 28.8804L146.297 28.8854C147.884 30.5017 149.866 31.31 152.192 31.31C154.184 31.31 155.863 30.8607 157.162 29.9147V30V30.75H157.912H163.912H164.662V30V10V9.25H163.912H157.912Z" stroke="#006666" stroke-width="1.5"/>
<path d="M140.204 16.5099H140.954V15.7599V9.9999V9.2499H140.204H136.834V4.3999V3.39188L135.869 3.68153L129.869 5.48153L129.334 5.64188V6.1999V9.2499H126.884H126.134V9.9999V15.7599V16.5099H126.884H129.334V22.8399C129.334 25.8463 130.091 28.1571 131.822 29.5108L131.822 29.5108L131.829 29.516C132.702 30.1822 133.868 30.5828 135.263 30.773C136.662 30.9638 138.34 30.9496 140.283 30.7458L140.954 30.6753V29.9999V24.5599V23.7679L140.164 23.811C138.706 23.8905 137.777 23.8134 137.282 23.6484C137.104 23.5892 137.014 23.508 136.959 23.4194C136.896 23.3198 136.834 23.1444 136.834 22.8399V16.5099H140.204Z" stroke="#006666" stroke-width="1.5"/>
<path d="M115.884 8.68994C113.892 8.68994 112.214 9.13923 110.914 10.0853V9.99994V9.24994H110.164H104.164H103.414V9.99994V29.9999V30.7499H104.164H110.164H110.914V29.9999V19.0799C110.914 17.8331 111.219 17.0244 111.705 16.5198C112.203 16.0014 112.899 15.7099 113.884 15.7099C114.724 15.7099 115.352 15.9683 115.834 16.4503L115.845 16.4613L115.856 16.4719C116.326 16.9042 116.614 17.5709 116.614 18.5999V29.9999V30.7499H117.364H123.364H124.114V29.9999V17.7199C124.114 14.9915 123.351 12.7576 121.742 11.117C120.18 9.4977 118.209 8.68994 115.884 8.68994Z" stroke="#006666" stroke-width="1.5"/>
<path d="M93.7622 9.24994H93.0122V9.99994V10.1887C91.5968 9.17993 89.8452 8.68994 87.8022 8.68994C84.9398 8.68994 82.4892 9.81417 80.4889 12.0136C78.4858 14.1893 77.4922 16.8678 77.4922 19.9999C77.4922 23.1329 78.4862 25.8233 80.4872 28.0244L80.4872 28.0245L80.4905 28.028C82.4922 30.2013 84.9425 31.3099 87.8022 31.3099C89.8452 31.3099 91.5968 30.82 93.0122 29.8112V29.9999V30.7499H93.7622H99.7622H100.512V29.9999V9.99994V9.24994H99.7622H93.7622ZM89.0022 24.1299C87.7584 24.1299 86.8124 23.7495 86.0925 23.0296C85.3807 22.3177 84.9922 21.3369 84.9922 19.9999C84.9922 18.663 85.3807 17.6821 86.0925 16.9703C86.8124 16.2504 87.7584 15.8699 89.0022 15.8699C90.246 15.8699 91.192 16.2504 91.9119 16.9703C92.6237 17.6821 93.0122 18.663 93.0122 19.9999C93.0122 21.3369 92.6237 22.3177 91.9119 23.0296C91.192 23.7495 90.246 24.1299 89.0022 24.1299Z" stroke="#006666" stroke-width="1.5"/>
<path d="M68.842 9.25H68.092V10V20.92C68.092 22.1668 67.7866 22.9755 67.3013 23.4802C66.8029 23.9985 66.1069 24.29 65.122 24.29C64.2791 24.29 63.6311 24.0424 63.1215 23.5787C62.6668 23.1176 62.392 22.4278 62.392 21.4V10V9.25H61.642H55.642H54.892V10V22.28C54.892 25.006 55.6402 27.239 57.2219 28.8804L57.2219 28.8804L57.2268 28.8854C58.8137 30.5017 60.7959 31.31 63.122 31.31C65.1136 31.31 66.7922 30.8607 68.092 29.9147V30V30.75H68.842H74.842H75.592V30V10V9.25H74.842H68.842Z" stroke="#006666" stroke-width="1.5"/>
<path d="M45.52 9.24994H44.77V9.99994V10.1887C43.3546 9.17993 41.603 8.68994 39.56 8.68994C36.6976 8.68994 34.247 9.81417 32.2467 12.0136C30.2436 14.1893 29.25 16.8678 29.25 19.9999C29.25 23.1329 30.244 25.8233 32.245 28.0244L32.245 28.0245L32.2483 28.028C34.25 30.2013 36.7003 31.3099 39.56 31.3099C41.603 31.3099 43.3546 30.82 44.77 29.8112V37.9999V38.7499H45.52H51.52H52.27V37.9999V9.99994V9.24994H51.52H45.52ZM40.76 24.1299C39.5162 24.1299 38.5702 23.7495 37.8503 23.0296C37.1385 22.3177 36.75 21.3369 36.75 19.9999C36.75 18.663 37.1385 17.6821 37.8503 16.9703C38.5702 16.2504 39.5162 15.8699 40.76 15.8699C42.0038 15.8699 42.9498 16.2504 43.6697 16.9703C44.3815 17.6821 44.77 18.663 44.77 19.9999C44.77 21.3369 44.3815 22.3177 43.6697 23.0296C42.9498 23.7495 42.0038 24.1299 40.76 24.1299Z" stroke="#006666" stroke-width="1.5"/>
<g clip-path="url(#clip0_0_1)">
<path d="M5.36285 38.2341C4.03051 38.2341 2.73939 38.2361 1.44828 38.2334C0.545814 38.2315 0.00708456 37.6995 0.00333354 36.8073C-0.000131895 35.9832 -0.00225212 35.159 0.00398284 34.335C0.0101713 33.5169 0.558204 32.9586 1.37259 32.9582C7.49851 32.9547 13.6244 32.9546 19.7504 32.9583C20.5615 32.9588 21.1065 33.5208 21.1125 34.3417C21.1183 35.1383 21.1146 35.935 21.1135 36.7316C21.1121 37.7153 20.5984 38.2335 19.6201 38.2337C14.8814 38.2345 10.1428 38.2341 5.36285 38.2341Z" fill="#006666"/>
<path d="M3.79649 31.6369C3.40005 31.6369 3.0447 31.6369 2.66618 31.6369C2.59871 30.9391 2.64476 30.3349 3.12852 29.7492C4.23046 28.415 4.79962 26.8034 5.27985 25.1664C6.17033 22.1309 6.55971 19.0215 6.60891 15.834C9.22276 15.834 11.839 15.834 14.4908 15.834C14.5258 16.5559 14.5441 17.3053 14.6015 18.0516C14.8563 21.3631 15.3959 24.6179 16.7631 27.6734C17.1229 28.4776 17.6537 29.2097 18.1444 29.9494C18.4426 30.399 18.5277 30.6481 18.4481 31.6369C13.5805 31.6369 8.70902 31.6369 3.79649 31.6369Z" fill="#006666"/>
<path d="M16.8652 9.57028C16.5518 10.3326 16.252 11.0646 15.9398 11.8268C16.3143 11.8268 16.7142 11.8268 17.134 11.8268C17.134 12.7281 17.134 13.5857 17.134 14.4639C12.7524 14.4639 8.37713 14.4639 3.98132 14.4639C3.98132 13.5994 3.98132 12.7418 3.98132 11.8575C4.38296 11.8575 4.77676 11.8575 5.23657 11.8575C5.1404 11.6702 5.06765 11.5303 4.99657 11.3896C4.41047 10.2297 3.94025 9.03704 3.96184 7.70638C3.98541 6.25356 4.55834 5.58001 6.00502 5.42261C7.06519 5.30726 8.13441 5.27502 9.21983 5.20443C9.21983 4.80676 9.21983 4.38788 9.21983 3.93348C8.79347 3.93348 8.37451 3.93348 7.93808 3.93348C7.93808 3.04062 7.93808 2.18303 7.93808 1.29003C8.36933 1.29003 8.78814 1.29003 9.22603 1.29003C9.22603 0.846951 9.22603 0.438533 9.22603 0C10.1035 0 10.9614 0 11.8547 0C11.8547 0.396545 11.8547 0.815253 11.8547 1.26896C12.3068 1.26896 12.7252 1.26896 13.1702 1.26896C13.1702 2.16127 13.1702 3.01904 13.1702 3.91239C12.7632 3.91239 12.3447 3.91239 11.9022 3.91239C11.9022 4.36584 11.9022 4.78469 11.9022 5.24331C12.639 5.27127 13.389 5.27758 14.1349 5.3354C14.6795 5.37762 15.2267 5.45338 15.7587 5.57561C16.5332 5.75355 16.967 6.26524 17.0961 7.06046C17.234 7.91013 17.1131 8.72773 16.8652 9.57028Z" fill="#006666"/>
</g>
<defs>
<clipPath id="clip0_0_1">
<rect width="21.1111" height="38" fill="white"/>
</clipPath>
</defs>
</svg>
