<svg width="615" height="91" viewBox="0 0 615 91" fill="none" xmlns="http://www.w3.org/2000/svg">
<path d="M589.289 61.9961L589.289 61.9961L589.295 61.9913C592.276 59.9049 593.75 56.8365 593.75 52.9008C593.75 50.3884 593.121 48.246 591.812 46.5287C590.592 44.8242 589.086 43.5836 587.293 42.8367C585.61 42.1352 583.923 41.5727 582.235 41.1499C580.603 40.6965 579.203 40.2675 578.033 39.863C576.942 39.4233 576.798 39.0284 576.798 38.8431C576.798 38.4184 576.939 38.1855 577.188 38.02C577.489 37.8187 578.037 37.6636 578.942 37.6636C580.593 37.6636 581.903 38.4763 582.901 40.3048L583.258 40.96L583.915 40.6058L592.736 35.851L593.425 35.4794L593.024 34.8068C591.534 32.3076 589.553 30.3946 587.085 29.0867C584.626 27.7375 581.906 27.0674 578.942 27.0674C574.994 27.0674 571.612 28.0928 568.843 30.1818L568.843 30.1818L568.838 30.1857C566.059 32.3193 564.686 35.3303 564.686 39.1187C564.686 41.4603 565.298 43.4869 566.561 45.1534L566.565 45.159L566.569 45.1646C567.834 46.7699 569.354 47.9746 571.126 48.7625L571.134 48.766L571.143 48.7694C572.824 49.4699 574.507 50.0545 576.192 50.5225L576.201 50.5251L576.211 50.5275C577.843 50.9355 579.21 51.3624 580.318 51.8055L580.318 51.8056L580.327 51.8092C581.494 52.2581 581.638 52.6616 581.638 52.8319C581.638 53.274 581.473 53.5606 581.084 53.7837C580.633 54.0426 579.86 54.2182 578.667 54.2182C577.287 54.2182 576.212 53.906 575.39 53.3356C574.571 52.7671 573.938 51.8966 573.52 50.6617L573.228 49.8012L572.438 50.2506L563.48 55.35L562.873 55.6957L563.174 56.3258C564.546 59.1889 566.54 61.3604 569.156 62.8083C571.763 64.2517 574.946 64.9522 578.667 64.9522C582.828 64.9522 586.383 63.9814 589.289 61.9961Z" stroke="#006666" stroke-width="1.5"/>
<path d="M552.249 61.9961L552.249 61.9961L552.256 61.9913C555.236 59.9049 556.711 56.8365 556.711 52.9008C556.711 50.3884 556.082 48.2461 554.772 46.5287C553.552 44.8242 552.046 43.5836 550.254 42.8367C548.57 42.1352 546.884 41.5727 545.195 41.1499C543.563 40.6965 542.164 40.2675 540.994 39.863C539.903 39.4233 539.759 39.0284 539.759 38.8431C539.759 38.4184 539.9 38.1855 540.148 38.02C540.45 37.8187 540.998 37.6636 541.903 37.6636C543.553 37.6636 544.864 38.4763 545.861 40.3048L546.219 40.96L546.876 40.6058L555.696 35.851L556.386 35.4794L555.985 34.8068C554.495 32.3076 552.514 30.3945 550.046 29.0867C547.586 27.7375 544.867 27.0674 541.903 27.0674C537.954 27.0674 534.573 28.0928 531.804 30.1818L531.804 30.1818L531.799 30.1857C529.02 32.3193 527.646 35.3303 527.646 39.1187C527.646 41.4603 528.259 43.4869 529.521 45.1534L529.526 45.159L529.53 45.1646C530.795 46.7699 532.314 47.9746 534.087 48.7625L534.095 48.766L534.103 48.7694C535.784 49.4699 537.467 50.0545 539.152 50.5225L539.162 50.5251L539.171 50.5275C540.803 50.9355 542.17 51.3624 543.278 51.8055L543.278 51.8056L543.287 51.8092C544.455 52.2581 544.598 52.6616 544.598 52.8319C544.598 53.274 544.433 53.5606 544.045 53.7837C543.594 54.0426 542.82 54.2182 541.627 54.2182C540.248 54.2182 539.173 53.906 538.351 53.3356C537.532 52.7671 536.899 51.8966 536.48 50.6617L536.188 49.8012L535.399 50.2506L526.44 55.35L525.833 55.6957L526.135 56.3258C527.506 59.1889 529.5 61.3604 532.116 62.8083C534.724 64.2517 537.906 64.9522 541.627 64.9522C545.789 64.9522 549.344 63.9814 552.249 61.9961Z" stroke="#006666" stroke-width="1.5"/>
<path d="M499.725 53.1144C498.809 52.5804 498.085 51.8464 497.551 50.8944H520.847H521.453L521.58 50.3016C521.868 48.958 522.011 47.5266 522.011 46.0098C522.011 40.642 520.27 36.1319 516.771 32.5351C513.316 28.8898 508.959 27.0674 503.757 27.0674C498.203 27.0674 493.593 28.8791 489.993 32.5278L489.993 32.5278C486.444 36.1246 484.677 40.6371 484.677 46.0098C484.677 51.4294 486.468 55.9668 490.065 59.5642L490.069 59.5677C493.725 63.1764 498.568 64.9522 504.515 64.9522C511.335 64.9522 516.586 62.4987 520.147 57.542L520.631 56.8679L519.912 56.4542L511.642 51.6994L511.123 51.4007L510.717 51.8415C509.277 53.4051 507.287 54.2182 504.653 54.2182C502.582 54.2182 500.955 53.8319 499.725 53.1144ZM509.953 41.6764H497.219C497.699 40.4775 498.383 39.5814 499.253 38.9508C500.344 38.1601 501.802 37.7325 503.688 37.7325C505.501 37.7325 506.904 38.1574 507.961 38.9448C508.806 39.5749 509.477 40.4727 509.953 41.6764Z" stroke="#006666" stroke-width="1.5"/>
<path d="M478.329 63.9874H479.079V63.2374V42.0819C479.079 37.4839 477.795 33.7851 475.145 31.0844C472.562 28.4051 469.309 27.0674 465.442 27.0674C461.626 27.0674 458.559 28.0449 456.338 30.0702V15V14.25H455.588H445.252H444.502V15V63.2374V63.9874H445.252H455.588H456.338V63.2374V44.4248C456.338 42.1951 456.885 40.6443 457.852 39.6386C458.832 38.6191 460.183 38.077 461.997 38.077C463.57 38.077 464.795 38.5667 465.739 39.5112L465.75 39.5223L465.762 39.5328C466.713 40.4085 467.242 41.7208 467.242 43.5979V63.2374V63.9874H467.992H478.329Z" stroke="#006666" stroke-width="1.5"/>
<path d="M408.446 59.4918L408.449 59.4953C412.09 63.1366 416.65 64.9522 422.072 64.9522C425.552 64.9522 428.738 64.1164 431.615 62.4381C434.484 60.7647 436.717 58.5096 438.301 55.6788L438.663 55.0308L438.019 54.6618L428.992 49.4935L428.283 49.0877L427.939 49.8286C427.399 50.9899 426.644 51.831 425.677 52.3891C424.704 52.9511 423.469 53.2534 421.935 53.2534C419.866 53.2534 418.204 52.5864 416.887 51.272C415.571 49.9124 414.898 48.1789 414.898 46.0098C414.898 43.8382 415.572 42.1316 416.883 40.8205L416.883 40.8206L416.891 40.8123C418.21 39.4523 419.872 38.7661 421.935 38.7661C423.443 38.7661 424.668 39.0676 425.643 39.6304C426.612 40.1901 427.381 41.0347 427.943 42.2009L428.295 42.9302L428.995 42.5239L438.023 37.2867L438.666 36.9135L438.298 36.267C436.713 33.4804 434.455 31.2507 431.544 29.58C428.669 27.9036 425.507 27.0674 422.072 27.0674C416.65 27.0674 412.09 28.8829 408.449 32.5243L408.449 32.5242L408.446 32.5278C404.854 36.1671 403.061 40.678 403.061 46.0098C403.061 51.3416 404.854 55.8525 408.446 59.4918Z" stroke="#006666" stroke-width="1.5"/>
<path d="M382.963 63.9874H383.713V63.2374V42.0819C383.713 37.6212 382.476 33.9786 379.931 31.2373C377.383 28.4458 374.004 27.0674 369.87 27.0674C365.554 27.0674 362.187 28.3901 359.893 31.114C357.737 28.4096 354.693 27.0674 350.851 27.0674C347.284 27.0674 344.423 27.9977 342.367 29.9256V28.7821V28.0321H341.617H331.28H330.53V28.7821V63.2374V63.9874H331.28H341.617H342.367V63.2374V43.8046C342.367 41.895 342.8 40.4985 343.575 39.5254C344.377 38.5748 345.484 38.077 346.992 38.077C348.432 38.077 349.412 38.5213 350.063 39.318L350.07 39.3257L350.076 39.3333C350.799 40.1705 351.203 41.3557 351.203 42.9777V63.2374V63.9874H351.953H362.29H363.04V63.2374V43.8046C363.04 41.895 363.473 40.4985 364.248 39.5253C365.05 38.5748 366.157 38.077 367.665 38.077C369.105 38.077 370.085 38.5213 370.737 39.318L370.743 39.3257L370.749 39.3333C371.472 40.1705 371.876 41.3557 371.876 42.9777V63.2374V63.9874H372.626H382.963Z" stroke="#006666" stroke-width="1.5"/>
<path d="M313.363 28.0322H312.613V28.7822V47.5948C312.613 49.8246 312.067 51.3753 311.099 52.3811C310.119 53.4006 308.768 53.9426 306.954 53.9426C305.379 53.9426 304.124 53.4732 303.132 52.5663C302.215 51.643 301.709 50.2983 301.709 48.4218V28.7822V28.0322H300.959H290.622H289.872V28.7822V49.9378C289.872 54.5334 291.131 58.2311 293.735 60.9326L293.735 60.9326L293.739 60.9376C296.367 63.614 299.641 64.9523 303.509 64.9523C307.325 64.9523 310.392 63.9748 312.613 61.9494V63.2375V63.9875H313.363H323.699H324.449V63.2375V28.7822V28.0322H323.699H313.363Z" stroke="#006666" stroke-width="1.5"/>
<path d="M282.856 39.4549H283.606V38.7049V28.7818V28.0318H282.856H276.509V19.1343V18.1263L275.543 18.4159L265.206 21.5169L264.672 21.6772V22.2353V28.0318H259.909H259.159V28.7818V38.7049V39.4549H259.909H264.672V50.9021C264.672 56.0093 265.959 59.7849 268.75 61.9673L268.75 61.9674L268.757 61.9726C270.159 63.0435 272.068 63.7115 274.417 64.0319C276.77 64.3528 279.614 64.3313 282.935 63.983L283.606 63.9125V63.2371V53.8652V53.0732L282.815 53.1163C280.298 53.2537 278.607 53.1284 277.65 52.8092C277.241 52.6729 276.978 52.4616 276.806 52.1899C276.628 51.9072 276.509 51.4957 276.509 50.9021V39.4549H282.856Z" stroke="#006666" stroke-width="1.5"/>
<path d="M253.844 63.9874H254.594V63.2374V42.0819C254.594 37.4839 253.311 33.7852 250.661 31.0845C248.078 28.4052 244.825 27.0674 240.958 27.0674C237.142 27.0674 234.075 28.0449 231.854 30.0702V28.7821V28.0321H231.104H220.767H220.017V28.7821V63.2374V63.9874H220.767H231.104H231.854V63.2374V44.4248C231.854 42.1951 232.4 40.6443 233.367 39.6386C234.348 38.6191 235.699 38.077 237.513 38.077C239.085 38.077 240.31 38.5667 241.255 39.5112L241.266 39.5223L241.277 39.5328C242.229 40.4085 242.758 41.7208 242.758 43.5979V63.2374V63.9874H243.508H253.844Z" stroke="#006666" stroke-width="1.5"/>
<path d="M202.847 28.0321H202.097V28.7821V30.2193C199.63 28.1043 196.436 27.0674 192.58 27.0674C187.809 27.0674 183.73 28.9337 180.38 32.6172C177.028 36.2577 175.36 40.7383 175.36 46.0098C175.36 51.2822 177.029 55.7843 180.379 59.4695L180.379 59.4695L180.382 59.4731C183.733 63.1111 187.812 64.9522 192.58 64.9522C196.436 64.9522 199.63 63.9152 202.097 61.8002V63.2374V63.9874H202.847H213.184H213.934V63.2374V28.7821V28.0321H213.184H202.847ZM194.647 53.6669C192.382 53.6669 190.607 52.9684 189.251 51.6125C187.903 50.2646 187.197 48.4261 187.197 46.0098C187.197 43.5935 187.903 41.755 189.251 40.4071C190.607 39.0512 192.382 38.3527 194.647 38.3527C196.912 38.3527 198.687 39.0512 200.043 40.4071C201.391 41.755 202.097 43.5935 202.097 46.0098C202.097 48.4261 201.391 50.2646 200.043 51.6125C198.687 52.9684 196.912 53.6669 194.647 53.6669Z" stroke="#006666" stroke-width="1.5"/>
<path d="M159.916 28.0322H159.166V28.7822V47.5948C159.166 49.8246 158.619 51.3753 157.652 52.3811C156.672 53.4006 155.321 53.9426 153.507 53.9426C151.931 53.9426 150.676 53.4732 149.685 52.5664C148.768 51.643 148.262 50.2983 148.262 48.4218V28.7822V28.0322H147.512H137.175H136.425V28.7822V49.9378C136.425 54.5334 137.684 58.2311 140.287 60.9326L140.287 60.9326L140.292 60.9376C142.92 63.614 146.193 64.9523 150.061 64.9523C153.877 64.9523 156.945 63.9748 159.166 61.9494V63.2375V63.9875H159.916H170.252H171.002V63.2375V28.7822V28.0322H170.252H159.916Z" stroke="#006666" stroke-width="1.5"/>
<path d="M119.737 28.0321H118.987V28.7821V30.2193C116.52 28.1043 113.326 27.0674 109.47 27.0674C104.699 27.0674 100.62 28.9336 97.2704 32.6172C93.9182 36.2576 92.25 40.7383 92.25 46.0098C92.25 51.2822 93.9186 55.7843 97.2688 59.4695L97.2688 59.4695L97.2721 59.4731C100.623 63.1111 104.702 64.9522 109.47 64.9522C113.326 64.9522 116.52 63.9152 118.987 61.8002V77.0196V77.7696H119.737H130.074H130.824V77.0196V28.7821V28.0321H130.074H119.737ZM111.537 53.6669C109.272 53.6669 107.497 52.9684 106.141 51.6125C104.793 50.2646 104.087 48.4261 104.087 46.0098C104.087 43.5935 104.793 41.755 106.141 40.4071C107.497 39.0512 109.272 38.3527 111.537 38.3527C113.802 38.3527 115.577 39.0512 116.933 40.4071C118.281 41.755 118.987 43.5935 118.987 46.0098C118.987 48.4261 118.281 50.2646 116.933 51.6125C115.577 52.9684 113.802 53.6669 111.537 53.6669Z" stroke="#006666" stroke-width="1.5"/>
<path d="M45.2902 84.493C42.4853 84.493 39.7671 84.4972 37.049 84.4916C35.1491 84.4876 34.0149 83.3675 34.007 81.4893C33.9997 79.7543 33.9953 78.0192 34.0084 76.2844C34.0214 74.562 35.1752 73.3868 36.8897 73.3858C49.7863 73.3786 62.683 73.3784 75.5797 73.3862C77.2874 73.3872 78.4348 74.5702 78.4473 76.2986C78.4595 77.9756 78.4519 79.6528 78.4495 81.33C78.4466 83.401 77.3651 84.4919 75.3055 84.4922C65.3293 84.494 55.3532 84.493 45.2902 84.493Z" stroke="#006666" stroke-width="1.5"/>
<path d="M41.9926 70.6043C41.158 70.6043 40.4099 70.6043 39.613 70.6043C39.471 69.1351 39.5679 67.8633 40.5863 66.6302C42.9062 63.8213 44.1044 60.4286 45.1155 56.9822C46.9902 50.5917 47.8099 44.0455 47.9135 37.335C53.4163 37.335 58.9241 37.335 64.5069 37.335C64.5806 38.8548 64.6191 40.4324 64.74 42.0037C65.2763 48.9753 66.4124 55.8273 69.2907 62.2601C70.0483 63.9532 71.1656 65.4944 72.1986 67.0517C72.8264 67.9981 73.0057 68.5226 72.8382 70.6043C62.5904 70.6043 52.3348 70.6043 41.9926 70.6043Z" stroke="#006666" stroke-width="1.5"/>
<path d="M69.5056 24.1479C68.8458 25.7529 68.2147 27.2939 67.5575 28.8986C68.3458 28.8986 69.1877 28.8986 70.0716 28.8986C70.0716 30.796 70.0716 32.6016 70.0716 34.4503C60.8472 34.4503 51.6361 34.4503 42.3817 34.4503C42.3817 32.6302 42.3817 30.8247 42.3817 28.9632C43.2273 28.9632 44.0563 28.9632 45.0243 28.9632C44.8219 28.5687 44.6687 28.2743 44.5191 27.9782C43.2852 25.5361 42.2953 23.0253 42.3407 20.224C42.3903 17.1654 43.5965 15.7474 46.6421 15.416C48.8741 15.1732 51.1251 15.1053 53.4102 14.9567C53.4102 14.1195 53.4102 13.2376 53.4102 12.281C52.5126 12.281 51.6305 12.281 50.7117 12.281C50.7117 10.4013 50.7117 8.59584 50.7117 6.71586C51.6196 6.71586 52.5013 6.71586 53.4232 6.71586C53.4232 5.78305 53.4232 4.92323 53.4232 4C55.2704 4 57.0767 4 58.9572 4C58.9572 4.83483 58.9572 5.71632 58.9572 6.67148C59.909 6.67148 60.7898 6.67148 61.7268 6.67148C61.7268 8.55003 61.7268 10.3559 61.7268 12.2366C60.87 12.2366 59.9889 12.2366 59.0572 12.2366C59.0572 13.1912 59.0572 14.073 59.0572 15.0385C60.6085 15.0974 62.1873 15.1107 63.7577 15.2324C64.9042 15.3213 66.0563 15.4808 67.1762 15.7381C68.8067 16.1127 69.7199 17.19 69.9917 18.8641C70.2821 20.6529 70.0276 22.3742 69.5056 24.1479Z" stroke="#006666" stroke-width="1.5"/>
</svg>
